STARTFONT 2.1
FONT -Linotype-Palatino-Bold-I-Normal--12-120-72-72-P-66-ISO8859-1
SIZE 12 72 72
FONTBOUNDINGBOX 13 17 -1 -4

STARTPROPERTIES 22
FONTNAME_REGISTRY "-"
FOUNDRY "Linotype"
FAMILY_NAME "Palatino"
WEIGHT_NAME "Bold"
SLANT "I"
SETWIDTH_NAME "Normal"
ADD_STYLE_NAME ""
SPACING "P"
CHARSET_REGISTRY "ISO8859"
CHARSET_ENCODING "1"
PIXEL_SIZE 12
POINT_SIZE 120
RESOLUTION_X 72
RESOLUTION_Y 72
AVERAGE_WIDTH 66
FULL_NAME "Palatino-BoldItalic"
WEIGHT 10
X_HEIGHT 6
QUAD_WIDTH 7
DEFAULT_CHAR 32
FONT_DESCENT 4
FONT_ASCENT 13
ENDPROPERTIES

CHARS 190

STARTCHAR space
ENCODING 32
SWIDTH 250 0
DWIDTH 3 0
BBX 1 1 0 0
BITMAP
00
ENDCHAR

STARTCHAR exclam
ENCODING 33
SWIDTH 333 0
DWIDTH 4 0
BBX 4 9 1 0
BITMAP
30
30
30
60
60
40
00
C0
C0
ENDCHAR

STARTCHAR quotedbl
ENCODING 34
SWIDTH 500 0
DWIDTH 6 0
BBX 4 4 1 5
BITMAP
F0
F0
A0
A0
ENDCHAR

STARTCHAR numbersign
ENCODING 35
SWIDTH 500 0
DWIDTH 7 0
BBX 6 9 0 0
BITMAP
38
38
38
FC
78
FC
70
70
70
ENDCHAR

STARTCHAR dollar
ENCODING 36
SWIDTH 500 0
DWIDTH 6 0
BBX 6 11 0 -1
BITMAP
10
3C
74
70
70
30
38
38
B8
F0
40
ENDCHAR

STARTCHAR percent
ENCODING 37
SWIDTH 889 0
DWIDTH 11 0
BBX 10 9 0 0
BITMAP
7180
DB00
DB00
7600
0C00
1B80
1EC0
36C0
6380
ENDCHAR

STARTCHAR ampersand
ENCODING 38
SWIDTH 833 0
DWIDTH 10 0
BBX 10 9 0 0
BITMAP
1E00
3600
3000
38C0
6780
CF00
C300
E600
7C00
ENDCHAR

STARTCHAR quoteright
ENCODING 39
SWIDTH 278 0
DWIDTH 3 0
BBX 3 3 0 6
BITMAP
60
60
C0
ENDCHAR

STARTCHAR parenleft
ENCODING 40
SWIDTH 333 0
DWIDTH 4 0
BBX 5 12 0 -2
BITMAP
08
30
60
60
C0
C0
C0
C0
C0
C0
40
20
ENDCHAR

STARTCHAR parenright
ENCODING 41
SWIDTH 333 0
DWIDTH 4 0
BBX 5 12 -1 -2
BITMAP
20
10
18
18
18
18
18
18
30
30
60
80
ENDCHAR

STARTCHAR asterisk
ENCODING 42
SWIDTH 444 0
DWIDTH 5 0
BBX 4 5 0 3
BITMAP
20
E0
70
E0
20
ENDCHAR

STARTCHAR plus
ENCODING 43
SWIDTH 606 0
DWIDTH 7 0
BBX 7 7 0 0
BITMAP
10
10
10
FE
10
10
10
ENDCHAR

STARTCHAR comma
ENCODING 44
SWIDTH 250 0
DWIDTH 3 0
BBX 3 3 -1 -1
BITMAP
60
60
C0
ENDCHAR

STARTCHAR minus
ENCODING 45
SWIDTH 606 0
DWIDTH 7 0
BBX 7 1 0 3
BITMAP
FE
ENDCHAR

STARTCHAR period
ENCODING 46
SWIDTH 250 0
DWIDTH 3 0
BBX 2 2 0 0
BITMAP
C0
C0
ENDCHAR

STARTCHAR slash
ENCODING 47
SWIDTH 315 0
DWIDTH 4 0
BBX 4 9 0 0
BITMAP
10
10
30
20
60
40
C0
80
80
ENDCHAR

STARTCHAR zero
ENCODING 48
SWIDTH 500 0
DWIDTH 6 0
BBX 5 9 0 0
BITMAP
30
58
58
D8
D8
D8
D0
D0
60
ENDCHAR

STARTCHAR one
ENCODING 49
SWIDTH 500 0
DWIDTH 6 0
BBX 4 9 1 0
BITMAP
30
F0
B0
30
30
60
60
60
F0
ENDCHAR

STARTCHAR two
ENCODING 50
SWIDTH 500 0
DWIDTH 6 0
BBX 5 9 0 0
BITMAP
38
58
18
18
30
20
40
F8
F8
ENDCHAR

STARTCHAR three
ENCODING 51
SWIDTH 500 0
DWIDTH 6 0
BBX 5 9 0 0
BITMAP
30
58
18
30
78
18
18
B0
E0
ENDCHAR

STARTCHAR four
ENCODING 52
SWIDTH 500 0
DWIDTH 6 0
BBX 5 9 0 0
BITMAP
08
18
38
38
58
B0
F8
30
78
ENDCHAR

STARTCHAR five
ENCODING 53
SWIDTH 500 0
DWIDTH 6 0
BBX 6 9 0 0
BITMAP
3C
3C
20
70
58
18
18
B0
E0
ENDCHAR

STARTCHAR six
ENCODING 54
SWIDTH 500 0
DWIDTH 6 0
BBX 6 9 0 0
BITMAP
1C
30
60
70
D8
D8
D8
D0
60
ENDCHAR

STARTCHAR seven
ENCODING 55
SWIDTH 500 0
DWIDTH 6 0
BBX 6 9 0 0
BITMAP
7C
7C
08
10
30
20
60
C0
C0
ENDCHAR

STARTCHAR eight
ENCODING 56
SWIDTH 500 0
DWIDTH 6 0
BBX 6 9 0 0
BITMAP
38
6C
6C
38
70
D8
D8
D8
70
ENDCHAR

STARTCHAR nine
ENCODING 57
SWIDTH 500 0
DWIDTH 6 0
BBX 6 9 0 0
BITMAP
18
2C
6C
6C
6C
38
18
B0
E0
ENDCHAR

STARTCHAR colon
ENCODING 58
SWIDTH 250 0
DWIDTH 3 0
BBX 3 6 0 0
BITMAP
60
60
00
00
C0
C0
ENDCHAR

STARTCHAR semicolon
ENCODING 59
SWIDTH 250 0
DWIDTH 3 0
BBX 4 7 0 -1
BITMAP
30
30
00
00
60
60
C0
ENDCHAR

STARTCHAR less
ENCODING 60
SWIDTH 606 0
DWIDTH 7 0
BBX 7 7 0 0
BITMAP
06
18
60
80
60
18
06
ENDCHAR

STARTCHAR equal
ENCODING 61
SWIDTH 606 0
DWIDTH 7 0
BBX 6 4 0 2
BITMAP
FC
00
00
FC
ENDCHAR

STARTCHAR greater
ENCODING 62
SWIDTH 606 0
DWIDTH 7 0
BBX 7 7 0 0
BITMAP
C0
30
0C
02
0C
30
C0
ENDCHAR

STARTCHAR question
ENCODING 63
SWIDTH 444 0
DWIDTH 5 0
BBX 5 9 0 0
BITMAP
F0
D8
18
30
60
40
00
C0
C0
ENDCHAR

STARTCHAR at
ENCODING 64
SWIDTH 833 0
DWIDTH 10 0
BBX 8 9 1 0
BITMAP
3C
66
DF
B5
AD
BE
D4
63
3E
ENDCHAR

STARTCHAR A
ENCODING 65
SWIDTH 722 0
DWIDTH 9 0
BBX 9 9 0 0
BITMAP
0400
0600
0E00
1600
1300
3F00
2300
4300
E780
ENDCHAR

STARTCHAR B
ENCODING 66
SWIDTH 667 0
DWIDTH 8 0
BBX 7 9 0 0
BITMAP
7C
36
36
34
3C
66
66
66
FC
ENDCHAR

STARTCHAR C
ENCODING 67
SWIDTH 685 0
DWIDTH 8 0
BBX 7 9 0 0
BITMAP
1E
32
60
C0
C0
C0
C0
E6
7C
ENDCHAR

STARTCHAR D
ENCODING 68
SWIDTH 778 0
DWIDTH 9 0
BBX 9 9 0 0
BITMAP
7F00
3380
3180
3180
3180
6180
6300
6600
FC00
ENDCHAR

STARTCHAR E
ENCODING 69
SWIDTH 611 0
DWIDTH 7 0
BBX 7 9 0 0
BITMAP
7E
32
30
30
3C
60
60
64
FC
ENDCHAR

STARTCHAR F
ENCODING 70
SWIDTH 556 0
DWIDTH 7 0
BBX 7 9 0 0
BITMAP
7E
32
30
30
3C
60
60
60
F0
ENDCHAR

STARTCHAR G
ENCODING 71
SWIDTH 778 0
DWIDTH 9 0
BBX 8 9 0 0
BITMAP
1F
31
60
C0
C0
CF
C6
66
3C
ENDCHAR

STARTCHAR H
ENCODING 72
SWIDTH 778 0
DWIDTH 10 0
BBX 10 9 0 0
BITMAP
7BC0
3180
3180
3180
3F00
6300
6300
6300
F780
ENDCHAR

STARTCHAR I
ENCODING 73
SWIDTH 389 0
DWIDTH 5 0
BBX 5 9 0 0
BITMAP
78
30
30
30
30
60
60
60
F0
ENDCHAR

STARTCHAR J
ENCODING 74
SWIDTH 389 0
DWIDTH 5 0
BBX 6 11 -1 -2
BITMAP
3C
18
18
18
18
30
30
30
30
30
C0
ENDCHAR

STARTCHAR K
ENCODING 75
SWIDTH 722 0
DWIDTH 9 0
BBX 9 9 0 0
BITMAP
7B00
3200
3400
3800
3800
6C00
6600
6300
F380
ENDCHAR

STARTCHAR L
ENCODING 76
SWIDTH 611 0
DWIDTH 7 0
BBX 7 9 0 0
BITMAP
78
30
30
30
30
60
60
62
FE
ENDCHAR

STARTCHAR M
ENCODING 77
SWIDTH 944 0
DWIDTH 12 0
BBX 12 9 0 0
BITMAP
3870
1860
18E0
2D60
2D60
2EC0
4EC0
44C0
E5E0
ENDCHAR

STARTCHAR N
ENCODING 78
SWIDTH 778 0
DWIDTH 10 0
BBX 10 9 0 0
BITMAP
61C0
3080
3880
3C80
2D00
4700
4700
4300
E100
ENDCHAR

STARTCHAR O
ENCODING 79
SWIDTH 833 0
DWIDTH 10 0
BBX 9 9 0 0
BITMAP
1F00
2380
4180
C180
C180
C180
C100
E200
7C00
ENDCHAR

STARTCHAR P
ENCODING 80
SWIDTH 667 0
DWIDTH 8 0
BBX 8 9 0 0
BITMAP
7E
33
33
33
2E
60
60
60
F0
ENDCHAR

STARTCHAR Q
ENCODING 81
SWIDTH 833 0
DWIDTH 10 0
BBX 10 11 0 -2
BITMAP
1F00
2380
4180
C180
C180
C180
C100
E200
7C00
3C40
4780
ENDCHAR

STARTCHAR R
ENCODING 82
SWIDTH 722 0
DWIDTH 9 0
BBX 9 9 0 0
BITMAP
7E00
3300
3300
3600
3C00
6C00
6600
6300
F380
ENDCHAR

STARTCHAR S
ENCODING 83
SWIDTH 556 0
DWIDTH 7 0
BBX 7 9 0 0
BITMAP
3E
62
60
70
38
1C
0C
8C
F8
ENDCHAR

STARTCHAR T
ENCODING 84
SWIDTH 611 0
DWIDTH 8 0
BBX 8 9 0 0
BITMAP
FF
99
18
18
18
30
30
30
78
ENDCHAR

STARTCHAR U
ENCODING 85
SWIDTH 778 0
DWIDTH 9 0
BBX 9 9 0 0
BITMAP
E780
6300
6300
6300
C600
C600
C600
CE00
7700
ENDCHAR

STARTCHAR V
ENCODING 86
SWIDTH 667 0
DWIDTH 9 0
BBX 9 9 0 0
BITMAP
F380
6100
6200
6200
6400
3400
3800
3000
3000
ENDCHAR

STARTCHAR W
ENCODING 87
SWIDTH 1000 0
DWIDTH 12 0
BBX 12 9 0 0
BITMAP
F670
6620
6640
6F40
6B40
3380
3380
2100
2100
ENDCHAR

STARTCHAR X
ENCODING 88
SWIDTH 722 0
DWIDTH 9 0
BBX 9 9 0 0
BITMAP
7B80
3100
1A00
1C00
0C00
1E00
2600
4300
E780
ENDCHAR

STARTCHAR Y
ENCODING 89
SWIDTH 611 0
DWIDTH 8 0
BBX 8 9 0 0
BITMAP
E3
66
34
38
18
30
30
30
78
ENDCHAR

STARTCHAR Z
ENCODING 90
SWIDTH 667 0
DWIDTH 8 0
BBX 8 9 0 0
BITMAP
7F
46
0C
0C
18
30
60
61
FF
ENDCHAR

STARTCHAR bracketleft
ENCODING 91
SWIDTH 333 0
DWIDTH 4 0
BBX 5 11 0 -2
BITMAP
38
30
30
30
60
60
60
60
C0
C0
E0
ENDCHAR

STARTCHAR backslash
ENCODING 92
SWIDTH 606 0
DWIDTH 7 0
BBX 5 9 1 0
BITMAP
80
C0
40
60
20
30
10
18
08
ENDCHAR

STARTCHAR bracketright
ENCODING 93
SWIDTH 333 0
DWIDTH 4 0
BBX 5 11 -1 -2
BITMAP
38
18
18
18
30
30
30
30
60
60
E0
ENDCHAR

STARTCHAR asciicircum
ENCODING 94
SWIDTH 606 0
DWIDTH 7 0
BBX 5 6 0 3
BITMAP
20
20
70
50
D8
88
ENDCHAR

STARTCHAR underscore
ENCODING 95
SWIDTH 500 0
DWIDTH 6 0
BBX 6 1 0 -1
BITMAP
FC
ENDCHAR

STARTCHAR quoteleft
ENCODING 96
SWIDTH 278 0
DWIDTH 3 0
BBX 3 3 0 6
BITMAP
60
C0
C0
ENDCHAR

STARTCHAR a
ENCODING 97
SWIDTH 556 0
DWIDTH 7 0
BBX 7 6 0 0
BITMAP
3C
6C
D8
D8
FA
DC
ENDCHAR

STARTCHAR b
ENCODING 98
SWIDTH 537 0
DWIDTH 6 0
BBX 6 9 0 0
BITMAP
70
30
30
78
6C
6C
CC
D8
F0
ENDCHAR

STARTCHAR c
ENCODING 99
SWIDTH 444 0
DWIDTH 5 0
BBX 5 6 0 0
BITMAP
38
68
C0
C0
D8
F0
ENDCHAR

STARTCHAR d
ENCODING 100
SWIDTH 556 0
DWIDTH 7 0
BBX 7 9 0 0
BITMAP
0E
06
06
3C
6C
CC
D8
FA
DC
ENDCHAR

STARTCHAR e
ENCODING 101
SWIDTH 444 0
DWIDTH 5 0
BBX 5 6 0 0
BITMAP
38
68
F0
C0
D8
F0
ENDCHAR

STARTCHAR f
ENCODING 102
SWIDTH 333 0
DWIDTH 4 0
BBX 7 12 -1 -3
BITMAP
0E
18
18
7C
30
30
30
60
60
60
60
C0
ENDCHAR

STARTCHAR g
ENCODING 103
SWIDTH 500 0
DWIDTH 6 0
BBX 7 9 -1 -3
BITMAP
1C
2E
6C
78
30
78
CC
CC
F8
ENDCHAR

STARTCHAR h
ENCODING 104
SWIDTH 556 0
DWIDTH 7 0
BBX 7 9 0 0
BITMAP
70
30
30
7C
6C
6C
D8
DA
DC
ENDCHAR

STARTCHAR i
ENCODING 105
SWIDTH 333 0
DWIDTH 4 0
BBX 4 9 0 0
BITMAP
30
30
00
60
E0
60
C0
D0
E0
ENDCHAR

STARTCHAR j
ENCODING 106
SWIDTH 333 0
DWIDTH 4 0
BBX 5 12 -1 -3
BITMAP
18
18
00
30
70
30
30
60
60
60
60
C0
ENDCHAR

STARTCHAR k
ENCODING 107
SWIDTH 556 0
DWIDTH 7 0
BBX 7 9 0 0
BITMAP
70
30
30
6C
78
70
70
DA
DC
ENDCHAR

STARTCHAR l
ENCODING 108
SWIDTH 333 0
DWIDTH 4 0
BBX 4 9 0 0
BITMAP
70
30
30
60
60
60
C0
D0
E0
ENDCHAR

STARTCHAR m
ENCODING 109
SWIDTH 833 0
DWIDTH 10 0
BBX 10 6 0 0
BITMAP
6D80
FF80
6D80
DB00
DB40
DB80
ENDCHAR

STARTCHAR n
ENCODING 110
SWIDTH 556 0
DWIDTH 7 0
BBX 7 6 0 0
BITMAP
7C
EC
6C
D8
DA
DC
ENDCHAR

STARTCHAR o
ENCODING 111
SWIDTH 556 0
DWIDTH 6 0
BBX 6 6 0 0
BITMAP
3C
6C
CC
CC
D8
F0
ENDCHAR

STARTCHAR p
ENCODING 112
SWIDTH 556 0
DWIDTH 7 0
BBX 7 9 -1 -3
BITMAP
36
7E
36
36
6C
78
60
C0
C0
ENDCHAR

STARTCHAR q
ENCODING 113
SWIDTH 537 0
DWIDTH 6 0
BBX 6 9 0 -3
BITMAP
3C
6C
CC
D8
F8
D8
30
30
30
ENDCHAR

STARTCHAR r
ENCODING 114
SWIDTH 389 0
DWIDTH 5 0
BBX 5 6 0 0
BITMAP
68
F8
60
C0
C0
C0
ENDCHAR

STARTCHAR s
ENCODING 115
SWIDTH 444 0
DWIDTH 5 0
BBX 5 6 0 0
BITMAP
38
68
70
38
98
F0
ENDCHAR

STARTCHAR t
ENCODING 116
SWIDTH 389 0
DWIDTH 4 0
BBX 5 8 0 0
BITMAP
30
30
F8
60
60
C0
D0
E0
ENDCHAR

STARTCHAR u
ENCODING 117
SWIDTH 556 0
DWIDTH 7 0
BBX 7 6 0 0
BITMAP
6C
EC
6C
D8
FA
DC
ENDCHAR

STARTCHAR v
ENCODING 118
SWIDTH 556 0
DWIDTH 7 0
BBX 7 6 0 0
BITMAP
FE
B6
66
64
78
30
ENDCHAR

STARTCHAR w
ENCODING 119
SWIDTH 833 0
DWIDTH 10 0
BBX 10 6 0 0
BITMAP
F7C0
B6C0
66C0
6C80
6D80
7700
ENDCHAR

STARTCHAR x
ENCODING 120
SWIDTH 500 0
DWIDTH 6 0
BBX 6 6 0 0
BITMAP
6C
F8
30
30
7C
D8
ENDCHAR

STARTCHAR y
ENCODING 121
SWIDTH 556 0
DWIDTH 7 0
BBX 7 9 0 -3
BITMAP
36
76
36
6C
7C
6C
18
D8
F0
ENDCHAR

STARTCHAR z
ENCODING 122
SWIDTH 500 0
DWIDTH 6 0
BBX 6 6 0 0
BITMAP
7C
5C
18
30
74
FC
ENDCHAR

STARTCHAR braceleft
ENCODING 123
SWIDTH 333 0
DWIDTH 4 0
BBX 5 11 0 -2
BITMAP
18
30
30
30
60
C0
60
60
C0
C0
60
ENDCHAR

STARTCHAR bar
ENCODING 124
SWIDTH 606 0
DWIDTH 7 0
BBX 2 9 2 0
BITMAP
C0
C0
C0
C0
C0
C0
C0
C0
C0
ENDCHAR

STARTCHAR braceright
ENCODING 125
SWIDTH 333 0
DWIDTH 4 0
BBX 5 11 -1 -2
BITMAP
30
18
18
30
30
18
30
60
60
60
C0
ENDCHAR

STARTCHAR asciitilde
ENCODING 126
SWIDTH 606 0
DWIDTH 7 0
BBX 6 2 0 2
BITMAP
6C
D8
ENDCHAR

STARTCHAR exclamdown
ENCODING 161
SWIDTH 333 0
DWIDTH 4 0
BBX 4 9 0 -3
BITMAP
30
30
00
20
60
60
C0
C0
C0
ENDCHAR

STARTCHAR cent
ENCODING 162
SWIDTH 500 0
DWIDTH 6 0
BBX 5 8 0 -1
BITMAP
10
30
78
E0
A0
D0
E0
40
ENDCHAR

STARTCHAR sterling
ENCODING 163
SWIDTH 500 0
DWIDTH 6 0
BBX 6 9 0 0
BITMAP
18
38
60
60
F8
60
60
6C
FC
ENDCHAR

STARTCHAR currency
ENCODING 164
SWIDTH 500 0
DWIDTH 7 0
BBX 6 7 0 1
BITMAP
B4
78
CC
CC
CC
78
B4
ENDCHAR

STARTCHAR yen
ENCODING 165
SWIDTH 500 0
DWIDTH 6 0
BBX 6 9 0 0
BITMAP
C4
48
78
70
F0
60
F0
60
F0
ENDCHAR

STARTCHAR brokenbar
ENCODING 166
SWIDTH 606 0
DWIDTH 7 0
BBX 2 9 2 0
BITMAP
C0
C0
C0
C0
00
C0
C0
C0
C0
ENDCHAR

STARTCHAR section
ENCODING 167
SWIDTH 556 0
DWIDTH 7 0
BBX 5 11 1 -2
BITMAP
78
D8
C8
60
F8
D8
78
30
98
D8
F0
ENDCHAR

STARTCHAR dieresis
ENCODING 168
SWIDTH 333 0
DWIDTH 4 0
BBX 4 2 0 7
BITMAP
90
90
ENDCHAR

STARTCHAR copyright
ENCODING 169
SWIDTH 747 0
DWIDTH 9 0
BBX 9 9 0 0
BITMAP
3E00
4100
9C80
A480
A080
B080
9E80
4100
3E00
ENDCHAR

STARTCHAR ordfeminine
ENCODING 170
SWIDTH 333 0
DWIDTH 4 0
BBX 3 6 0 3
BITMAP
E0
60
A0
E0
00
E0
ENDCHAR

STARTCHAR guillemotleft
ENCODING 171
SWIDTH 500 0
DWIDTH 6 0
BBX 5 5 0 1
BITMAP
28
50
A0
50
28
ENDCHAR

STARTCHAR logicalnot
ENCODING 172
SWIDTH 606 0
DWIDTH 7 0
BBX 6 3 0 1
BITMAP
FC
04
04
ENDCHAR

STARTCHAR hyphen
ENCODING 173
SWIDTH 389 0
DWIDTH 5 0
BBX 4 1 0 3
BITMAP
F0
ENDCHAR

STARTCHAR registered
ENCODING 174
SWIDTH 747 0
DWIDTH 9 0
BBX 9 9 0 0
BITMAP
3E00
4100
BC80
9280
9C80
9680
BA80
4100
3E00
ENDCHAR

STARTCHAR macron
ENCODING 175
SWIDTH 333 0
DWIDTH 4 0
BBX 4 1 0 7
BITMAP
F0
ENDCHAR

STARTCHAR degree
ENCODING 176
SWIDTH 400 0
DWIDTH 6 0
BBX 4 3 1 6
BITMAP
60
90
60
ENDCHAR

STARTCHAR plusminus
ENCODING 177
SWIDTH 606 0
DWIDTH 7 0
BBX 7 8 0 0
BITMAP
10
10
10
FE
10
10
10
FE
ENDCHAR

STARTCHAR twosuperior
ENCODING 178
SWIDTH 300 0
DWIDTH 4 0
BBX 3 6 0 3
BITMAP
60
A0
20
40
80
E0
ENDCHAR

STARTCHAR threesuperior
ENCODING 179
SWIDTH 300 0
DWIDTH 4 0
BBX 3 6 0 3
BITMAP
60
A0
40
20
A0
C0
ENDCHAR

STARTCHAR acute
ENCODING 180
SWIDTH 333 0
DWIDTH 4 0
BBX 3 2 0 7
BITMAP
60
80
ENDCHAR

STARTCHAR mu
ENCODING 181
SWIDTH 556 0
DWIDTH 7 0
BBX 7 9 0 -3
BITMAP
24
64
24
48
5A
6C
80
80
80
ENDCHAR

STARTCHAR paragraph
ENCODING 182
SWIDTH 556 0
DWIDTH 7 0
BBX 7 11 0 -2
BITMAP
7E
D4
D4
D4
D4
74
28
28
28
28
7C
ENDCHAR

STARTCHAR periodcentered
ENCODING 183
SWIDTH 250 0
DWIDTH 6 0
BBX 1 2 2 3
BITMAP
80
80
ENDCHAR

STARTCHAR cedilla
ENCODING 184
SWIDTH 333 0
DWIDTH 4 0
BBX 3 3 0 -2
BITMAP
40
20
E0
ENDCHAR

STARTCHAR onesuperior
ENCODING 185
SWIDTH 300 0
DWIDTH 4 0
BBX 3 6 0 3
BITMAP
60
20
20
40
40
E0
ENDCHAR

STARTCHAR ordmasculine
ENCODING 186
SWIDTH 333 0
DWIDTH 4 0
BBX 4 6 0 3
BITMAP
60
90
90
60
00
F0
ENDCHAR

STARTCHAR guillemotright
ENCODING 187
SWIDTH 500 0
DWIDTH 6 0
BBX 5 5 0 1
BITMAP
A0
50
28
50
A0
ENDCHAR

STARTCHAR onequarter
ENCODING 188
SWIDTH 750 0
DWIDTH 9 0
BBX 9 9 0 0
BITMAP
6200
2200
2400
4480
4980
EB00
1780
1100
2380
ENDCHAR

STARTCHAR onehalf
ENCODING 189
SWIDTH 750 0
DWIDTH 9 0
BBX 9 9 0 0
BITMAP
6200
2200
2400
4580
4A80
E880
1100
1200
2380
ENDCHAR

STARTCHAR threequarters
ENCODING 190
SWIDTH 750 0
DWIDTH 9 0
BBX 9 9 0 0
BITMAP
6200
A200
4400
2480
A980
CB00
1780
1100
2380
ENDCHAR

STARTCHAR questiondown
ENCODING 191
SWIDTH 444 0
DWIDTH 5 0
BBX 4 9 0 -3
BITMAP
10
10
00
20
20
40
80
90
70
ENDCHAR

STARTCHAR Agrave
ENCODING 192
SWIDTH 722 0
DWIDTH 9 0
BBX 9 12 0 0
BITMAP
1800
0400
0000
0400
0600
0E00
1600
1300
3F00
2300
4300
E780
ENDCHAR

STARTCHAR Aacute
ENCODING 193
SWIDTH 722 0
DWIDTH 9 0
BBX 9 12 0 0
BITMAP
0600
0800
0000
0400
0600
0E00
1600
1300
3F00
2300
4300
E780
ENDCHAR

STARTCHAR Acircumflex
ENCODING 194
SWIDTH 722 0
DWIDTH 9 0
BBX 9 12 0 0
BITMAP
0C00
1200
0000
0400
0600
0E00
1600
1300
3F00
2300
4300
E780
ENDCHAR

STARTCHAR Atilde
ENCODING 195
SWIDTH 722 0
DWIDTH 9 0
BBX 9 12 0 0
BITMAP
1A00
1600
0000
0400
0600
0E00
1600
1300
3F00
2300
4300
E780
ENDCHAR

STARTCHAR Adieresis
ENCODING 196
SWIDTH 722 0
DWIDTH 9 0
BBX 9 12 0 0
BITMAP
1200
1200
0000
0400
0600
0E00
1600
1300
3F00
2300
4300
E780
ENDCHAR

STARTCHAR Aring
ENCODING 197
SWIDTH 722 0
DWIDTH 9 0
BBX 9 13 0 0
BITMAP
0C00
1200
0C00
0000
0400
0600
0E00
1600
1300
3F00
2300
4300
E780
ENDCHAR

STARTCHAR AE
ENCODING 198
SWIDTH 944 0
DWIDTH 11 0
BBX 11 9 0 0
BITMAP
0FE0
0720
0B00
0B00
13C0
3E00
2600
4640
EFC0
ENDCHAR

STARTCHAR Ccedilla
ENCODING 199
SWIDTH 685 0
DWIDTH 8 0
BBX 7 12 0 -3
BITMAP
1E
32
60
C0
C0
C0
C0
E6
7C
10
08
38
ENDCHAR

STARTCHAR Egrave
ENCODING 200
SWIDTH 611 0
DWIDTH 7 0
BBX 7 12 0 0
BITMAP
18
04
00
7E
32
30
30
3C
60
60
64
FC
ENDCHAR

STARTCHAR Eacute
ENCODING 201
SWIDTH 611 0
DWIDTH 7 0
BBX 7 12 0 0
BITMAP
06
08
00
7E
32
30
30
3C
60
60
64
FC
ENDCHAR

STARTCHAR Ecircumflex
ENCODING 202
SWIDTH 611 0
DWIDTH 7 0
BBX 7 12 0 0
BITMAP
0C
12
00
7E
32
30
30
3C
60
60
64
FC
ENDCHAR

STARTCHAR Edieresis
ENCODING 203
SWIDTH 611 0
DWIDTH 7 0
BBX 7 12 0 0
BITMAP
12
12
00
7E
32
30
30
3C
60
60
64
FC
ENDCHAR

STARTCHAR Igrave
ENCODING 204
SWIDTH 389 0
DWIDTH 5 0
BBX 5 12 0 0
BITMAP
60
10
00
78
30
30
30
30
60
60
60
F0
ENDCHAR

STARTCHAR Iacute
ENCODING 205
SWIDTH 389 0
DWIDTH 5 0
BBX 5 12 0 0
BITMAP
18
20
00
78
30
30
30
30
60
60
60
F0
ENDCHAR

STARTCHAR Icircumflex
ENCODING 206
SWIDTH 389 0
DWIDTH 5 0
BBX 5 12 0 0
BITMAP
30
48
00
78
30
30
30
30
60
60
60
F0
ENDCHAR

STARTCHAR Idieresis
ENCODING 207
SWIDTH 389 0
DWIDTH 5 0
BBX 5 12 0 0
BITMAP
48
48
00
78
30
30
30
30
60
60
60
F0
ENDCHAR

STARTCHAR Eth
ENCODING 208
SWIDTH 778 0
DWIDTH 9 0
BBX 9 9 0 0
BITMAP
7F00
3380
3180
3180
FD80
6180
6300
6600
FC00
ENDCHAR

STARTCHAR Ntilde
ENCODING 209
SWIDTH 778 0
DWIDTH 10 0
BBX 10 12 0 0
BITMAP
0D00
0B00
0000
61C0
3080
3880
3C80
2D00
4700
4700
4300
E100
ENDCHAR

STARTCHAR Ograve
ENCODING 210
SWIDTH 833 0
DWIDTH 10 0
BBX 9 12 0 0
BITMAP
1800
0400
0000
1F00
2380
4180
C180
C180
C180
C100
E200
7C00
ENDCHAR

STARTCHAR Oacute
ENCODING 211
SWIDTH 833 0
DWIDTH 10 0
BBX 9 12 0 0
BITMAP
0600
0800
0000
1F00
2380
4180
C180
C180
C180
C100
E200
7C00
ENDCHAR

STARTCHAR Ocircumflex
ENCODING 212
SWIDTH 833 0
DWIDTH 10 0
BBX 9 12 0 0
BITMAP
0C00
1200
0000
1F00
2380
4180
C180
C180
C180
C100
E200
7C00
ENDCHAR

STARTCHAR Otilde
ENCODING 213
SWIDTH 833 0
DWIDTH 10 0
BBX 9 12 0 0
BITMAP
1A00
1600
0000
1F00
2380
4180
C180
C180
C180
C100
E200
7C00
ENDCHAR

STARTCHAR Odieresis
ENCODING 214
SWIDTH 833 0
DWIDTH 10 0
BBX 9 12 0 0
BITMAP
1200
1200
0000
1F00
2380
4180
C180
C180
C180
C100
E200
7C00
ENDCHAR

STARTCHAR multiply
ENCODING 215
SWIDTH 606 0
DWIDTH 7 0
BBX 7 7 0 0
BITMAP
82
44
28
10
28
44
82
ENDCHAR

STARTCHAR Oslash
ENCODING 216
SWIDTH 833 0
DWIDTH 10 0
BBX 9 9 0 0
BITMAP
1F80
2380
4380
C580
C980
D180
E100
E200
FC00
ENDCHAR

STARTCHAR Ugrave
ENCODING 217
SWIDTH 778 0
DWIDTH 9 0
BBX 9 12 0 0
BITMAP
1800
0400
0000
E780
6300
6300
6300
C600
C600
C600
CE00
7700
ENDCHAR

STARTCHAR Uacute
ENCODING 218
SWIDTH 778 0
DWIDTH 9 0
BBX 9 12 0 0
BITMAP
0600
0800
0000
E780
6300
6300
6300
C600
C600
C600
CE00
7700
ENDCHAR

STARTCHAR Ucircumflex
ENCODING 219
SWIDTH 778 0
DWIDTH 9 0
BBX 9 12 0 0
BITMAP
0C00
1200
0000
E780
6300
6300
6300
C600
C600
C600
CE00
7700
ENDCHAR

STARTCHAR Udieresis
ENCODING 220
SWIDTH 778 0
DWIDTH 9 0
BBX 9 12 0 0
BITMAP
1200
1200
0000
E780
6300
6300
6300
C600
C600
C600
CE00
7700
ENDCHAR

STARTCHAR Yacute
ENCODING 221
SWIDTH 611 0
DWIDTH 8 0
BBX 8 12 0 0
BITMAP
06
08
00
E3
66
34
38
18
30
30
30
78
ENDCHAR

STARTCHAR Thorn
ENCODING 222
SWIDTH 667 0
DWIDTH 8 0
BBX 8 9 0 0
BITMAP
78
30
3E
33
33
62
6C
60
F0
ENDCHAR

STARTCHAR germandbls
ENCODING 223
SWIDTH 556 0
DWIDTH 7 0
BBX 8 12 -1 -3
BITMAP
0E
1B
1A
36
76
33
33
36
6C
60
60
C0
ENDCHAR

STARTCHAR agrave
ENCODING 224
SWIDTH 556 0
DWIDTH 7 0
BBX 7 9 0 0
BITMAP
30
08
00
3C
6C
D8
D8
FA
DC
ENDCHAR

STARTCHAR aacute
ENCODING 225
SWIDTH 556 0
DWIDTH 7 0
BBX 7 9 0 0
BITMAP
0C
10
00
3C
6C
D8
D8
FA
DC
ENDCHAR

STARTCHAR acircumflex
ENCODING 226
SWIDTH 556 0
DWIDTH 7 0
BBX 7 9 0 0
BITMAP
18
24
00
3C
6C
D8
D8
FA
DC
ENDCHAR

STARTCHAR atilde
ENCODING 227
SWIDTH 556 0
DWIDTH 7 0
BBX 7 9 0 0
BITMAP
34
2C
00
3C
6C
D8
D8
FA
DC
ENDCHAR

STARTCHAR adieresis
ENCODING 228
SWIDTH 556 0
DWIDTH 7 0
BBX 7 9 0 0
BITMAP
24
24
00
3C
6C
D8
D8
FA
DC
ENDCHAR

STARTCHAR aring
ENCODING 229
SWIDTH 556 0
DWIDTH 7 0
BBX 7 10 1 0
BITMAP
18
24
18
00
3C
6C
D8
D8
FA
DC
ENDCHAR

STARTCHAR ae
ENCODING 230
SWIDTH 738 0
DWIDTH 9 0
BBX 8 6 0 0
BITMAP
77
5D
3E
D8
DB
FE
ENDCHAR

STARTCHAR ccedilla
ENCODING 231
SWIDTH 444 0
DWIDTH 5 0
BBX 5 9 0 -3
BITMAP
38
68
C0
C0
D8
F0
20
10
70
ENDCHAR

STARTCHAR egrave
ENCODING 232
SWIDTH 444 0
DWIDTH 5 0
BBX 5 9 0 0
BITMAP
30
08
00
38
68
F0
C0
D8
F0
ENDCHAR

STARTCHAR eacute
ENCODING 233
SWIDTH 444 0
DWIDTH 5 0
BBX 5 9 0 0
BITMAP
18
20
00
38
68
F0
C0
D8
F0
ENDCHAR

STARTCHAR ecircumflex
ENCODING 234
SWIDTH 444 0
DWIDTH 5 0
BBX 5 9 0 0
BITMAP
30
48
00
38
68
F0
C0
D8
F0
ENDCHAR

STARTCHAR edieresis
ENCODING 235
SWIDTH 444 0
DWIDTH 5 0
BBX 5 9 0 0
BITMAP
48
48
00
38
68
F0
C0
D8
F0
ENDCHAR

STARTCHAR igrave
ENCODING 236
SWIDTH 333 0
DWIDTH 4 0
BBX 4 9 0 0
BITMAP
60
10
00
60
E0
60
C0
D0
E0
ENDCHAR

STARTCHAR iacute
ENCODING 237
SWIDTH 333 0
DWIDTH 4 0
BBX 5 9 0 0
BITMAP
18
20
00
60
E0
60
C0
D0
E0
ENDCHAR

STARTCHAR icircumflex
ENCODING 238
SWIDTH 333 0
DWIDTH 4 0
BBX 4 9 0 0
BITMAP
60
90
00
60
E0
60
C0
D0
E0
ENDCHAR

STARTCHAR idieresis
ENCODING 239
SWIDTH 333 0
DWIDTH 4 0
BBX 4 9 0 0
BITMAP
90
90
00
60
E0
60
C0
D0
E0
ENDCHAR

STARTCHAR eth
ENCODING 240
SWIDTH 556 0
DWIDTH 7 0
BBX 6 9 0 0
BITMAP
6C
38
48
3C
6C
CC
CC
D8
F0
ENDCHAR

STARTCHAR ntilde
ENCODING 241
SWIDTH 556 0
DWIDTH 7 0
BBX 7 9 0 0
BITMAP
34
2C
00
7C
EC
6C
D8
DA
DC
ENDCHAR

STARTCHAR ograve
ENCODING 242
SWIDTH 556 0
DWIDTH 6 0
BBX 6 9 0 0
BITMAP
30
08
00
3C
6C
CC
CC
D8
F0
ENDCHAR

STARTCHAR oacute
ENCODING 243
SWIDTH 556 0
DWIDTH 6 0
BBX 6 9 0 0
BITMAP
0C
10
00
3C
6C
CC
CC
D8
F0
ENDCHAR

STARTCHAR ocircumflex
ENCODING 244
SWIDTH 556 0
DWIDTH 6 0
BBX 6 9 0 0
BITMAP
18
24
00
3C
6C
CC
CC
D8
F0
ENDCHAR

STARTCHAR otilde
ENCODING 245
SWIDTH 556 0
DWIDTH 6 0
BBX 6 9 0 0
BITMAP
34
2C
00
3C
6C
CC
CC
D8
F0
ENDCHAR

STARTCHAR odieresis
ENCODING 246
SWIDTH 556 0
DWIDTH 6 0
BBX 6 9 0 0
BITMAP
24
24
00
3C
6C
CC
CC
D8
F0
ENDCHAR

STARTCHAR divide
ENCODING 247
SWIDTH 606 0
DWIDTH 7 0
BBX 7 7 0 0
BITMAP
10
10
00
FE
00
10
10
ENDCHAR

STARTCHAR oslash
ENCODING 248
SWIDTH 556 0
DWIDTH 6 0
BBX 6 6 0 0
BITMAP
3C
6C
DC
EC
D8
F0
ENDCHAR

STARTCHAR ugrave
ENCODING 249
SWIDTH 556 0
DWIDTH 7 0
BBX 7 9 0 0
BITMAP
30
08
00
6C
EC
6C
D8
FA
DC
ENDCHAR

STARTCHAR uacute
ENCODING 250
SWIDTH 556 0
DWIDTH 7 0
BBX 7 9 0 0
BITMAP
0C
10
00
6C
EC
6C
D8
FA
DC
ENDCHAR

STARTCHAR ucircumflex
ENCODING 251
SWIDTH 556 0
DWIDTH 7 0
BBX 7 9 0 0
BITMAP
18
24
00
6C
EC
6C
D8
FA
DC
ENDCHAR

STARTCHAR udieresis
ENCODING 252
SWIDTH 556 0
DWIDTH 7 0
BBX 7 9 0 0
BITMAP
24
24
00
6C
EC
6C
D8
FA
DC
ENDCHAR

STARTCHAR yacute
ENCODING 253
SWIDTH 556 0
DWIDTH 7 0
BBX 7 12 -1 -3
BITMAP
06
08
00
36
76
36
6C
7C
6C
18
D8
F0
ENDCHAR

STARTCHAR thorn
ENCODING 254
SWIDTH 556 0
DWIDTH 7 0
BBX 7 12 0 -3
BITMAP
70
30
30
3C
36
66
66
6C
78
C0
C0
C0
ENDCHAR

STARTCHAR ydieresis
ENCODING 255
SWIDTH 556 0
DWIDTH 7 0
BBX 7 12 -1 -3
BITMAP
12
12
00
36
76
36
6C
7C
6C
18
D8
F0
ENDCHAR
ENDFONT
